<?xml version="1.0" standalone="no"?><!DOCTYPE svg PUBLIC "-//W3C//DTD SVG 1.1//EN" "http://www.w3.org/Graphics/SVG/1.1/DTD/svg11.dtd"><svg t="1580823769671" class="icon" viewBox="0 0 1024 1024" version="1.1" xmlns="http://www.w3.org/2000/svg" p-id="692" xmlns:xlink="http://www.w3.org/1999/xlink" width="200" height="200"><defs><style type="text/css"></style></defs><path d="M895.87 223.82l-0.81 640.05c-0.03 27.86-22.73 50.53-50.59 50.53H308.18l0.11 0.45h-41.45c-25.34-0.01-50.29-3.7-71.86-17.74-35.74-23.25-58.25-55.83-63.57-98.85-1.53-12.36-1.96-18.49-1.97-30.96-0.12-170.79-0.14-341.58-0.01-512.37 0.02-23.58 3.62-46.36 13.41-68.39 9.56-21.52 24.51-37.52 42.58-51.78 23.83-18.81 51.13-25.61 80.7-25.62 139.52-0.04 401.93 0.21 484.17 0.41 13.97 0.03 25.26 11.36 25.26 25.33v489.81c0 14.01-11.35 25.37-25.36 25.37-78.98 0.01-322.39 0.02-451.04-0.04-130.4 0-131.48 214.28-2.84 214.28l0.02 0.07h548.15c0.33 0 0.59-0.26 0.59-0.59l0.81-640.05c0.02-13.8 11.21-24.97 25-24.97h0.03c13.8 0.04 24.98 11.25 24.96 25.06z m-150.9 501.25H321.09c-13.81 0-25 11.19-25 25s11.19 25 25 25h423.88c13.81 0 25-11.19 25-25s-11.2-25-25-25z" p-id="693" fill="#5bbd72"></path></svg>