<?xml version="1.0" standalone="no"?><!DOCTYPE svg PUBLIC "-//W3C//DTD SVG 1.1//EN" "http://www.w3.org/Graphics/SVG/1.1/DTD/svg11.dtd"><svg t="1578214336718" class="icon" viewBox="0 0 1024 1024" version="1.1" xmlns="http://www.w3.org/2000/svg" p-id="12703" xmlns:xlink="http://www.w3.org/1999/xlink" width="200" height="200"><defs><style type="text/css"></style></defs><path d="M401.066667 448l203.306666-352.213333C574.72 89.173333 543.786667 85.333333 512 85.333333c-102.4 0-196.053333 36.053333-269.653333 96.213334l156.373333 270.72 2.346667-4.266667z m517.973333-64c-39.253333-124.8-134.4-224.426667-255.786667-270.506667L507.093333 384h411.946667z m11.093333 42.666667H610.56l12.373333 21.333333 203.306667 352C895.786667 724.053333 938.666667 623.146667 938.666667 512c0-29.226667-2.986667-57.813333-8.533334-85.333333z m-565.973333 85.333333l-166.4-288C128.213333 299.946667 85.333333 400.853333 85.333333 512c0 29.226667 2.986667 57.813333 8.533334 85.333333h319.573333l-49.28-85.333333zM104.96 640c39.253333 124.8 134.4 224.426667 255.786667 270.506667L516.906667 640H104.96z m480.853333 0l-166.4 288.213333c29.866667 6.613333 60.8 10.453333 92.586667 10.453334 102.4 0 196.053333-36.053333 269.653333-96.213334L625.28 571.733333 585.813333 640z" p-id="12704" fill="#ffffff"></path></svg>