<?xml version="1.0" standalone="no"?><!DOCTYPE svg PUBLIC "-//W3C//DTD SVG 1.1//EN" "http://www.w3.org/Graphics/SVG/1.1/DTD/svg11.dtd"><svg t="1578216406080" class="icon" viewBox="0 0 1024 1024" version="1.1" xmlns="http://www.w3.org/2000/svg" p-id="15908" xmlns:xlink="http://www.w3.org/1999/xlink" width="200" height="200"><defs><style type="text/css"></style></defs><path d="M503.466667 465.066667c-96.853333-25.173333-128-50.986667-128-91.52 0-46.506667 42.88-79.146667 115.2-79.146667 75.946667 0 104.106667 36.266667 106.666666 89.6h94.293334c-2.773333-73.6-47.786667-140.586667-136.96-162.56V128h-128v92.16c-82.773333 18.133333-149.333333 71.466667-149.333334 154.026667 0 98.56 81.706667 147.626667 200.533334 176.213333 106.88 25.6 128 62.933333 128 103.04 0 29.226667-20.693333 76.16-115.2 76.16-87.893333 0-122.666667-39.466667-127.146667-89.6h-94.08c5.333333 93.44 75.093333 145.706667 157.226667 163.413333V896h128v-91.733333c82.986667-16 149.333333-64 149.333333-151.68 0-120.746667-103.68-162.133333-200.533333-187.52z" p-id="15909" fill="#ffffff"></path></svg>