<?xml version="1.0" standalone="no"?><!DOCTYPE svg PUBLIC "-//W3C//DTD SVG 1.1//EN" "http://www.w3.org/Graphics/SVG/1.1/DTD/svg11.dtd"><svg t="1578805513045" class="icon" viewBox="0 0 1024 1024" version="1.1" xmlns="http://www.w3.org/2000/svg" p-id="17660" xmlns:xlink="http://www.w3.org/1999/xlink" width="200" height="200"><defs><style type="text/css"></style></defs><path d="M814.163934 8.393443h201.442623v604.327868h-201.442623z" fill="#455A64" p-id="17661"></path><path d="M411.278689 612.721311m-402.885246 0a402.885246 402.885246 0 1 0 805.770491 0 402.885246 402.885246 0 1 0-805.770491 0Z" fill="#455A64" p-id="17662"></path><path d="M411.278689 243.409836c203.121311 0 369.311475 166.190164 369.311475 369.311475s-166.190164 369.311475-369.311475 369.311476-369.311475-166.190164-369.311476-369.311476 166.190164-369.311475 369.311476-369.311475" fill="#455A64" p-id="17663"></path><path d="M612.721311 612.721311m-402.885245 0a402.885246 402.885246 0 1 0 805.770491 0 402.885246 402.885246 0 1 0-805.770491 0Z" fill="#546E7A" p-id="17664"></path><path d="M612.721311 612.721311m-100.721311 0a100.721311 100.721311 0 1 0 201.442623 0 100.721311 100.721311 0 1 0-201.442623 0Z" fill="#546E7A" p-id="17665"></path><path d="M377.704918 528.786885m-83.934426 0a83.934426 83.934426 0 1 0 167.868852 0 83.934426 83.934426 0 1 0-167.868852 0Z" fill="#455A64" p-id="17666"></path><path d="M406.242623 449.888525c-35.252459 40.288525-57.07541 92.327869-57.07541 149.403278v10.072131c8.393443 3.357377 18.465574 5.036066 26.859017 5.036066 47.003279 0 83.934426-36.931148 83.934426-83.934426 1.678689-38.609836-21.822951-68.82623-53.718033-80.577049z" fill="#FFA726" p-id="17667"></path><path d="M446.531148 480.104918c-28.537705 31.895082-47.003279 72.183607-47.003279 119.186885v11.75082c35.252459-10.072131 62.111475-41.967213 62.111475-80.577049 0-20.144262-6.714754-36.931148-15.108196-50.360656z" fill="#FFA726" p-id="17668"></path><path d="M461.639344 797.377049m-83.934426 0a83.934426 83.934426 0 1 0 167.868852 0 83.934426 83.934426 0 1 0-167.868852 0Z" fill="#455A64" p-id="17669"></path><path d="M461.639344 713.442623c-28.537705 0-55.396721 15.108197-70.504918 38.609836 26.859016 50.360656 73.862295 88.970492 129.259017 105.757377 15.108197-15.108197 25.180328-36.931148 25.180327-60.432787 0-47.003279-36.931148-83.934426-83.934426-83.934426z" fill="#FFA726" p-id="17670"></path><path d="M461.639344 713.442623c-11.75082 0-21.822951 1.678689-31.895082 6.714754 21.822951 45.32459 63.790164 80.577049 114.15082 92.327869 1.678689-5.036066 1.678689-10.072131 1.678688-15.108197 0-47.003279-36.931148-83.934426-83.934426-83.934426z" fill="#FFA726" p-id="17671"></path><path d="M763.803279 797.377049m-83.934427 0a83.934426 83.934426 0 1 0 167.868853 0 83.934426 83.934426 0 1 0-167.868853 0Z" fill="#455A64" p-id="17672"></path><path d="M834.308197 752.052459c-15.108197-23.501639-40.288525-38.609836-70.504918-38.609836-47.003279 0-83.934426 36.931148-83.934427 83.934426 0 23.501639 10.072131 45.32459 25.180328 60.432787 55.396721-18.465574 100.721311-57.07541 129.259017-105.757377z" fill="#FFA726" p-id="17673"></path><path d="M795.698361 720.157377c-10.072131-3.357377-20.144262-6.714754-31.895082-6.714754-47.003279 0-83.934426 36.931148-83.934427 83.934426 0 5.036066 0 10.072131 1.678689 15.108197 50.360656-13.429508 90.64918-47.003279 114.15082-92.327869z" fill="#FFA726" p-id="17674"></path><path d="M847.737705 528.786885m-83.934426 0a83.934426 83.934426 0 1 0 167.868852 0 83.934426 83.934426 0 1 0-167.868852 0Z" fill="#455A64" p-id="17675"></path><path d="M763.803279 528.786885c0 47.003279 36.931148 83.934426 83.934426 83.934426 10.072131 0 18.465574-1.678689 26.859016-5.036065v-10.072131c0-57.07541-21.822951-109.114754-57.07541-149.403279-30.216393 13.429508-53.718033 43.645902-53.718032 80.577049z" fill="#FFA726" p-id="17676"></path><path d="M763.803279 528.786885c0 38.609836 26.859016 72.183607 62.111475 80.577049v-11.750819c0-45.32459-18.465574-87.291803-47.003279-119.186885-8.393443 15.108197-15.108197 31.895082-15.108196 50.360655z" fill="#FFA726" p-id="17677"></path><path d="M612.721311 360.918033m-83.934426 0a83.934426 83.934426 0 1 0 167.868853 0 83.934426 83.934426 0 1 0-167.868853 0Z" fill="#455A64" p-id="17678"></path><path d="M612.721311 347.488525c-30.216393 0-57.07541 6.714754-83.934426 16.786885 1.678689 45.32459 38.609836 82.255738 83.934426 82.255738s82.255738-36.931148 83.934427-82.255738c-26.859016-11.75082-53.718033-16.786885-83.934427-16.786885z" fill="#FFA726" p-id="17679"></path><path d="M612.721311 396.170492c-23.501639 0-47.003279 5.036066-68.826229 13.429508 15.108197 21.822951 40.288525 35.252459 68.826229 35.252459s53.718033-13.429508 68.82623-35.252459c-21.822951-8.393443-45.32459-13.429508-68.82623-13.429508z" fill="#FFA726" p-id="17680"></path></svg>