<?xml version="1.0" standalone="no"?><!DOCTYPE svg PUBLIC "-//W3C//DTD SVG 1.1//EN" "http://www.w3.org/Graphics/SVG/1.1/DTD/svg11.dtd"><svg t="1581487625627" class="icon" viewBox="0 0 1024 1024" version="1.1" xmlns="http://www.w3.org/2000/svg" p-id="13491" xmlns:xlink="http://www.w3.org/1999/xlink" width="200" height="200"><defs><style type="text/css"></style></defs><path d="M46.08000001 364.72h1.67999999v58.24H46.08000001z" p-id="13492" fill="#5bbd72"></path><path d="M515.92 116.07999999m-63.84 0a63.84 63.84 0 1 0 127.67999999 0 63.84 63.84 0 1 0-127.67999999 0Z" p-id="13493" fill="#5bbd72"></path><path d="M172.192 414.896c-6.72 0-13.44-3.024-17.80800001-8.848-7.504-9.85600001-5.6-23.856 4.25600001-31.35999999l361.088-275.85600001c9.85600001-7.504 23.856-5.6 31.36000001 4.256 7.504 9.85600001 5.6 23.856-4.25600001 31.36L185.744 410.304c-4.032 3.024-8.84800001 4.592-13.552 4.592z" p-id="13494" fill="#5bbd72"></path><path d="M852.032 414.896c-4.704 0-9.52-1.456-13.552-4.592L476.048 133.328c-9.85600001-7.504-11.76-21.616-4.256-31.36000001 7.504-9.85600001 21.616-11.76 31.35999999-4.25599999l362.43200002 276.97600001c9.85600001 7.504 11.76 21.616 4.25599999 31.35999999-4.368 5.82400001-11.088 8.84800001-17.808 8.848zM416.352 557.808H388.80000001v73.136h26.54399999c12.656 0 22.848-3.696 30.576-11.088s11.536-16.576 11.536-27.664c0.112-22.96000001-13.664-34.384-41.104-34.384z" p-id="13495" fill="#5bbd72"></path><path d="M924.16 316.56H103.2c-49.28 0-89.6 40.32-89.6 89.6V886.08c0 49.28 40.32 89.6 89.6 89.6h820.96c49.28 0 89.6-40.32 89.60000001-89.6V406.16c0-49.28-40.32-89.6-89.60000001-89.6zM292.03200001 560.832h-90.72v65.29599999h83.55199999v44.352h-83.55199999V770.72h-54.09600001V516.592h144.81600001v44.24zM481.98399999 770.72l-39.87199999-66.08c-8.176-13.664-14.89600001-22.512-20.16-26.432s-10.86400001-5.936-16.688-5.936H388.80000001V770.72h-54.09600001V516.592h89.04c60.48 0 90.72 22.96000001 90.72 68.88 0 17.248-5.04 32.144-15.12 44.464-10.08 12.31999999-24.08 21.056-41.776 26.096v0.672c11.648 3.92 24.64 16.8 38.864 38.752l47.936 75.264h-62.38400001z m237.77600001 0H569.23200001V516.592h144.59199998v44.352h-90.38399999v59.92h84v44.12800001h-84v61.488h96.32V770.72z m192.08 0H761.424V516.592h144.592v44.352H815.52v59.92h84v44.12800001h-84v61.488h96.32V770.72z" p-id="13496" fill="#5bbd72"></path></svg>