<?xml version="1.0" standalone="no"?><!DOCTYPE svg PUBLIC "-//W3C//DTD SVG 1.1//EN" "http://www.w3.org/Graphics/SVG/1.1/DTD/svg11.dtd"><svg t="1579096040063" class="icon" viewBox="0 0 1024 1024" version="1.1" xmlns="http://www.w3.org/2000/svg" p-id="11489" xmlns:xlink="http://www.w3.org/1999/xlink" width="200" height="200"><defs><style type="text/css"></style></defs><path d="M576 28.586667s31.573333 113.066667 31.573333 204.8c0 87.893333-57.6 159.36-145.706666 159.36s-154.666667-71.253333-154.666667-159.36l1.066667-15.36A589.589333 589.589333 0 0 0 170.666667 597.333333c0 188.586667 152.746667 341.333333 341.333333 341.333334s341.333333-152.746667 341.333333-341.333334c0-230.186667-110.72-435.413333-277.333333-568.746666zM499.626667 810.666667c-75.946667 0-137.6-59.946667-137.6-133.973334 0-69.333333 44.586667-117.973333 120.106666-133.12s153.6-51.413333 196.906667-109.866666c16.64 55.04 25.386667 113.066667 25.386667 172.16 0 112.853333-91.733333 204.8-204.8 204.8z" p-id="11490" fill="#f1510e"></path></svg>